<svg width="304" height="44" viewBox="0 0 304 44" fill="none" xmlns="http://www.w3.org/2000/svg">
<g filter="url(#filter0_d_7_20)">
<rect width="300" height="40" fill="white"/>
<rect x="0.5" y="0.5" width="299" height="39" stroke="black"/>
</g>
<path d="M26.4545 18.5227L22.0227 18.7955C21.947 18.4167 21.7841 18.0758 21.5341 17.7727C21.2841 17.4621 20.9545 17.2159 20.5455 17.0341C20.1439 16.8447 19.6629 16.75 19.1023 16.75C18.3523 16.75 17.7197 16.9091 17.2045 17.2273C16.6894 17.5379 16.4318 17.9545 16.4318 18.4773C16.4318 18.8939 16.5985 19.2462 16.9318 19.5341C17.2652 19.822 17.8371 20.053 18.6477 20.2273L21.8068 20.8636C23.5038 21.2121 24.7689 21.7727 25.6023 22.5455C26.4356 23.3182 26.8523 24.3333 26.8523 25.5909C26.8523 26.7348 26.5152 27.7386 25.8409 28.6023C25.1742 29.4659 24.2576 30.1402 23.0909 30.625C21.9318 31.1023 20.5947 31.3409 19.0795 31.3409C16.7689 31.3409 14.928 30.8598 13.5568 29.8977C12.1932 28.928 11.3939 27.6098 11.1591 25.9432L15.9205 25.6932C16.0644 26.3977 16.4129 26.9356 16.9659 27.3068C17.5189 27.6705 18.2273 27.8523 19.0909 27.8523C19.9394 27.8523 20.6212 27.6894 21.1364 27.3636C21.6591 27.0303 21.9242 26.6023 21.9318 26.0795C21.9242 25.6402 21.7386 25.2803 21.375 25C21.0114 24.7121 20.4508 24.4924 19.6932 24.3409L16.6705 23.7386C14.9659 23.3977 13.697 22.8068 12.8636 21.9659C12.0379 21.125 11.625 20.053 11.625 18.75C11.625 17.6288 11.928 16.6629 12.5341 15.8523C13.1477 15.0417 14.0076 14.4167 15.1136 13.9773C16.2273 13.5379 17.5303 13.3182 19.0227 13.3182C21.2273 13.3182 22.9621 13.7841 24.2273 14.7159C25.5 15.6477 26.2424 16.9167 26.4545 18.5227ZM37.8551 31.3409C36.0597 31.3409 34.5142 30.9773 33.2188 30.25C31.9309 29.5152 30.9384 28.4773 30.2415 27.1364C29.5445 25.7879 29.196 24.1932 29.196 22.3523C29.196 20.5568 29.5445 18.9811 30.2415 17.625C30.9384 16.2689 31.9195 15.2121 33.1847 14.4545C34.4574 13.697 35.9498 13.3182 37.6619 13.3182C38.8134 13.3182 39.8854 13.5038 40.8778 13.875C41.8778 14.2386 42.7491 14.7879 43.4915 15.5227C44.2415 16.2576 44.8248 17.1818 45.2415 18.2955C45.6581 19.4015 45.8665 20.697 45.8665 22.1818V23.5114H31.1278V20.5114H41.3097C41.3097 19.8144 41.1581 19.197 40.8551 18.6591C40.5521 18.1212 40.1316 17.7008 39.5938 17.3977C39.0634 17.0871 38.446 16.9318 37.7415 16.9318C37.0066 16.9318 36.3551 17.1023 35.7869 17.4432C35.2263 17.7765 34.7869 18.2273 34.4688 18.7955C34.1506 19.3561 33.9877 19.9811 33.9801 20.6705V23.5227C33.9801 24.3864 34.1392 25.1326 34.4574 25.7614C34.7831 26.3902 35.2415 26.875 35.8324 27.2159C36.4233 27.5568 37.1241 27.7273 37.9347 27.7273C38.4725 27.7273 38.965 27.6515 39.4119 27.5C39.8589 27.3485 40.2415 27.1212 40.5597 26.8182C40.8778 26.5152 41.1203 26.1439 41.2869 25.7045L45.7642 26C45.5369 27.0758 45.071 28.0152 44.3665 28.8182C43.6695 29.6136 42.768 30.2348 41.6619 30.6818C40.5634 31.1212 39.2945 31.3409 37.8551 31.3409ZM49.0256 31V13.5455H53.7188V16.5909H53.9006C54.2188 15.5076 54.7528 14.6894 55.5028 14.1364C56.2528 13.5758 57.1165 13.2955 58.0938 13.2955C58.3362 13.2955 58.5975 13.3106 58.8778 13.3409C59.1581 13.3712 59.4044 13.4129 59.6165 13.4659V17.7614C59.3892 17.6932 59.0748 17.6326 58.6733 17.5795C58.2718 17.5265 57.9044 17.5 57.571 17.5C56.8589 17.5 56.2225 17.6553 55.6619 17.9659C55.1089 18.2689 54.6695 18.6932 54.3438 19.2386C54.0256 19.7841 53.8665 20.4129 53.8665 21.125V31H49.0256ZM62.1193 31V13.5455H66.9602V31H62.1193ZM64.5511 11.2955C63.8314 11.2955 63.214 11.0568 62.6989 10.5795C62.1913 10.0947 61.9375 9.51515 61.9375 8.84091C61.9375 8.17424 62.1913 7.60227 62.6989 7.125C63.214 6.64015 63.8314 6.39773 64.5511 6.39773C65.2708 6.39773 65.8845 6.64015 66.392 7.125C66.9072 7.60227 67.1648 8.17424 67.1648 8.84091C67.1648 9.51515 66.9072 10.0947 66.392 10.5795C65.8845 11.0568 65.2708 11.2955 64.5511 11.2955ZM75.8153 31.3295C74.7017 31.3295 73.7093 31.1364 72.8381 30.75C71.9669 30.3561 71.2775 29.7765 70.7699 29.0114C70.2699 28.2386 70.0199 27.2765 70.0199 26.125C70.0199 25.1553 70.1979 24.3409 70.554 23.6818C70.91 23.0227 71.3949 22.4924 72.0085 22.0909C72.6222 21.6894 73.3191 21.3864 74.0994 21.1818C74.8873 20.9773 75.7131 20.8333 76.5767 20.75C77.5919 20.6439 78.41 20.5455 79.0312 20.4545C79.6525 20.3561 80.1032 20.2121 80.3835 20.0227C80.6638 19.8333 80.804 19.553 80.804 19.1818V19.1136C80.804 18.3939 80.5767 17.8371 80.1222 17.4432C79.6752 17.0492 79.0388 16.8523 78.2131 16.8523C77.3419 16.8523 76.6487 17.0455 76.1335 17.4318C75.6184 17.8106 75.2775 18.2879 75.1108 18.8636L70.6335 18.5C70.8608 17.4394 71.3078 16.5227 71.9744 15.75C72.6411 14.9697 73.5009 14.3712 74.554 13.9545C75.6146 13.5303 76.8419 13.3182 78.2358 13.3182C79.2055 13.3182 80.1335 13.4318 81.0199 13.6591C81.9138 13.8864 82.7055 14.2386 83.3949 14.7159C84.0919 15.1932 84.6411 15.8068 85.0426 16.5568C85.4441 17.2992 85.6449 18.1894 85.6449 19.2273V31H81.054V28.5795H80.9176C80.6373 29.125 80.2623 29.6061 79.7926 30.0227C79.3229 30.4318 78.7585 30.7538 78.0994 30.9886C77.4403 31.2159 76.679 31.3295 75.8153 31.3295ZM77.2017 27.9886C77.9138 27.9886 78.5426 27.8485 79.0881 27.5682C79.6335 27.2803 80.0616 26.8939 80.3722 26.4091C80.6828 25.9242 80.8381 25.375 80.8381 24.7614V22.9091C80.6866 23.0076 80.4782 23.0985 80.2131 23.1818C79.9555 23.2576 79.6638 23.3295 79.3381 23.3977C79.0123 23.4583 78.6866 23.5152 78.3608 23.5682C78.035 23.6136 77.7396 23.6553 77.4744 23.6932C76.9063 23.7765 76.41 23.9091 75.9858 24.0909C75.5616 24.2727 75.232 24.5189 74.9972 24.8295C74.7623 25.1326 74.6449 25.5114 74.6449 25.9659C74.6449 26.625 74.8835 27.1288 75.3608 27.4773C75.8456 27.8182 76.4593 27.9886 77.2017 27.9886ZM94.2415 7.72727V31H89.4006V7.72727H94.2415ZM106.006 31.3409C104.218 31.3409 102.68 30.9621 101.392 30.2045C100.112 29.4394 99.1269 28.3788 98.4375 27.0227C97.7557 25.6667 97.4148 24.1061 97.4148 22.3409C97.4148 20.553 97.7595 18.9848 98.4489 17.6364C99.1458 16.2803 100.134 15.2235 101.415 14.4659C102.695 13.7008 104.218 13.3182 105.983 13.3182C107.506 13.3182 108.839 13.5947 109.983 14.1477C111.127 14.7008 112.032 15.4773 112.699 16.4773C113.366 17.4773 113.733 18.6515 113.801 20H109.233C109.104 19.1288 108.763 18.428 108.21 17.8977C107.665 17.3598 106.949 17.0909 106.062 17.0909C105.312 17.0909 104.657 17.2955 104.097 17.7045C103.544 18.1061 103.112 18.6932 102.801 19.4659C102.491 20.2386 102.335 21.1742 102.335 22.2727C102.335 23.3864 102.487 24.3333 102.79 25.1136C103.1 25.8939 103.536 26.4886 104.097 26.8977C104.657 27.3068 105.312 27.5114 106.062 27.5114C106.616 27.5114 107.112 27.3977 107.551 27.1705C107.998 26.9432 108.366 26.6136 108.653 26.1818C108.949 25.7424 109.142 25.2159 109.233 24.6023H113.801C113.725 25.9356 113.362 27.1098 112.71 28.125C112.066 29.1326 111.176 29.9205 110.04 30.4886C108.903 31.0568 107.559 31.3409 106.006 31.3409ZM124.787 31.3409C123.022 31.3409 121.495 30.9659 120.207 30.2159C118.927 29.4583 117.938 28.4053 117.241 27.0568C116.545 25.7008 116.196 24.1288 116.196 22.3409C116.196 20.5379 116.545 18.9621 117.241 17.6136C117.938 16.2576 118.927 15.2045 120.207 14.4545C121.495 13.697 123.022 13.3182 124.787 13.3182C126.552 13.3182 128.075 13.697 129.355 14.4545C130.643 15.2045 131.635 16.2576 132.332 17.6136C133.029 18.9621 133.378 20.5379 133.378 22.3409C133.378 24.1288 133.029 25.7008 132.332 27.0568C131.635 28.4053 130.643 29.4583 129.355 30.2159C128.075 30.9659 126.552 31.3409 124.787 31.3409ZM124.81 27.5909C125.613 27.5909 126.283 27.3636 126.821 26.9091C127.359 26.447 127.764 25.8182 128.037 25.0227C128.317 24.2273 128.457 23.322 128.457 22.3068C128.457 21.2917 128.317 20.3864 128.037 19.5909C127.764 18.7955 127.359 18.1667 126.821 17.7045C126.283 17.2424 125.613 17.0114 124.81 17.0114C123.999 17.0114 123.317 17.2424 122.764 17.7045C122.219 18.1667 121.806 18.7955 121.526 19.5909C121.253 20.3864 121.116 21.2917 121.116 22.3068C121.116 23.322 121.253 24.2273 121.526 25.0227C121.806 25.8182 122.219 26.447 122.764 26.9091C123.317 27.3636 123.999 27.5909 124.81 27.5909ZM141.366 20.9091V31H136.526V13.5455H141.139V16.625H141.344C141.73 15.6098 142.378 14.8068 143.287 14.2159C144.196 13.6174 145.298 13.3182 146.594 13.3182C147.806 13.3182 148.863 13.5833 149.764 14.1136C150.666 14.6439 151.366 15.4015 151.866 16.3864C152.366 17.3636 152.616 18.5303 152.616 19.8864V31H147.776V20.75C147.783 19.6818 147.51 18.8485 146.957 18.25C146.404 17.6439 145.643 17.3409 144.673 17.3409C144.022 17.3409 143.446 17.4811 142.946 17.7614C142.454 18.0417 142.067 18.4508 141.787 18.9886C141.514 19.5189 141.374 20.1591 141.366 20.9091ZM170.955 18.5227L166.523 18.7955C166.447 18.4167 166.284 18.0758 166.034 17.7727C165.784 17.4621 165.455 17.2159 165.045 17.0341C164.644 16.8447 164.163 16.75 163.602 16.75C162.852 16.75 162.22 16.9091 161.705 17.2273C161.189 17.5379 160.932 17.9545 160.932 18.4773C160.932 18.8939 161.098 19.2462 161.432 19.5341C161.765 19.822 162.337 20.053 163.148 20.2273L166.307 20.8636C168.004 21.2121 169.269 21.7727 170.102 22.5455C170.936 23.3182 171.352 24.3333 171.352 25.5909C171.352 26.7348 171.015 27.7386 170.341 28.6023C169.674 29.4659 168.758 30.1402 167.591 30.625C166.432 31.1023 165.095 31.3409 163.58 31.3409C161.269 31.3409 159.428 30.8598 158.057 29.8977C156.693 28.928 155.894 27.6098 155.659 25.9432L160.42 25.6932C160.564 26.3977 160.913 26.9356 161.466 27.3068C162.019 27.6705 162.727 27.8523 163.591 27.8523C164.439 27.8523 165.121 27.6894 165.636 27.3636C166.159 27.0303 166.424 26.6023 166.432 26.0795C166.424 25.6402 166.239 25.2803 165.875 25C165.511 24.7121 164.951 24.4924 164.193 24.3409L161.17 23.7386C159.466 23.3977 158.197 22.8068 157.364 21.9659C156.538 21.125 156.125 20.053 156.125 18.75C156.125 17.6288 156.428 16.6629 157.034 15.8523C157.648 15.0417 158.508 14.4167 159.614 13.9773C160.727 13.5379 162.03 13.3182 163.523 13.3182C165.727 13.3182 167.462 13.7841 168.727 14.7159C170 15.6477 170.742 16.9167 170.955 18.5227ZM182.287 31.3409C180.522 31.3409 178.995 30.9659 177.707 30.2159C176.427 29.4583 175.438 28.4053 174.741 27.0568C174.045 25.7008 173.696 24.1288 173.696 22.3409C173.696 20.5379 174.045 18.9621 174.741 17.6136C175.438 16.2576 176.427 15.2045 177.707 14.4545C178.995 13.697 180.522 13.3182 182.287 13.3182C184.052 13.3182 185.575 13.697 186.855 14.4545C188.143 15.2045 189.135 16.2576 189.832 17.6136C190.529 18.9621 190.878 20.5379 190.878 22.3409C190.878 24.1288 190.529 25.7008 189.832 27.0568C189.135 28.4053 188.143 29.4583 186.855 30.2159C185.575 30.9659 184.052 31.3409 182.287 31.3409ZM182.31 27.5909C183.113 27.5909 183.783 27.3636 184.321 26.9091C184.859 26.447 185.264 25.8182 185.537 25.0227C185.817 24.2273 185.957 23.322 185.957 22.3068C185.957 21.2917 185.817 20.3864 185.537 19.5909C185.264 18.7955 184.859 18.1667 184.321 17.7045C183.783 17.2424 183.113 17.0114 182.31 17.0114C181.499 17.0114 180.817 17.2424 180.264 17.7045C179.719 18.1667 179.306 18.7955 179.026 19.5909C178.753 20.3864 178.616 21.2917 178.616 22.3068C178.616 23.322 178.753 24.2273 179.026 25.0227C179.306 25.8182 179.719 26.447 180.264 26.9091C180.817 27.3636 181.499 27.5909 182.31 27.5909ZM198.866 7.72727V31H194.026V7.72727H198.866ZM210.699 31.3409C208.903 31.3409 207.358 30.9773 206.062 30.25C204.775 29.5152 203.782 28.4773 203.085 27.1364C202.388 25.7879 202.04 24.1932 202.04 22.3523C202.04 20.5568 202.388 18.9811 203.085 17.625C203.782 16.2689 204.763 15.2121 206.028 14.4545C207.301 13.697 208.794 13.3182 210.506 13.3182C211.657 13.3182 212.729 13.5038 213.722 13.875C214.722 14.2386 215.593 14.7879 216.335 15.5227C217.085 16.2576 217.669 17.1818 218.085 18.2955C218.502 19.4015 218.71 20.697 218.71 22.1818V23.5114H203.972V20.5114H214.153C214.153 19.8144 214.002 19.197 213.699 18.6591C213.396 18.1212 212.975 17.7008 212.438 17.3977C211.907 17.0871 211.29 16.9318 210.585 16.9318C209.85 16.9318 209.199 17.1023 208.631 17.4432C208.07 17.7765 207.631 18.2273 207.312 18.7955C206.994 19.3561 206.831 19.9811 206.824 20.6705V23.5227C206.824 24.3864 206.983 25.1326 207.301 25.7614C207.627 26.3902 208.085 26.875 208.676 27.2159C209.267 27.5568 209.968 27.7273 210.778 27.7273C211.316 27.7273 211.809 27.6515 212.256 27.5C212.703 27.3485 213.085 27.1212 213.403 26.8182C213.722 26.5152 213.964 26.1439 214.131 25.7045L218.608 26C218.381 27.0758 217.915 28.0152 217.21 28.8182C216.513 29.6136 215.612 30.2348 214.506 30.6818C213.407 31.1212 212.138 31.3409 210.699 31.3409ZM224.699 31.2955C223.949 31.2955 223.305 31.0303 222.767 30.5C222.237 29.9621 221.972 29.3182 221.972 28.5682C221.972 27.8258 222.237 27.1894 222.767 26.6591C223.305 26.1288 223.949 25.8636 224.699 25.8636C225.426 25.8636 226.063 26.1288 226.608 26.6591C227.153 27.1894 227.426 27.8258 227.426 28.5682C227.426 29.0682 227.297 29.5265 227.04 29.9432C226.79 30.3523 226.46 30.6818 226.051 30.9318C225.642 31.1742 225.191 31.2955 224.699 31.2955ZM236.378 31.3295C235.264 31.3295 234.272 31.1364 233.401 30.75C232.529 30.3561 231.84 29.7765 231.332 29.0114C230.832 28.2386 230.582 27.2765 230.582 26.125C230.582 25.1553 230.76 24.3409 231.116 23.6818C231.473 23.0227 231.957 22.4924 232.571 22.0909C233.185 21.6894 233.882 21.3864 234.662 21.1818C235.45 20.9773 236.276 20.8333 237.139 20.75C238.154 20.6439 238.973 20.5455 239.594 20.4545C240.215 20.3561 240.666 20.2121 240.946 20.0227C241.226 19.8333 241.366 19.553 241.366 19.1818V19.1136C241.366 18.3939 241.139 17.8371 240.685 17.4432C240.238 17.0492 239.601 16.8523 238.776 16.8523C237.904 16.8523 237.211 17.0455 236.696 17.4318C236.181 17.8106 235.84 18.2879 235.673 18.8636L231.196 18.5C231.423 17.4394 231.87 16.5227 232.537 15.75C233.204 14.9697 234.063 14.3712 235.116 13.9545C236.177 13.5303 237.404 13.3182 238.798 13.3182C239.768 13.3182 240.696 13.4318 241.582 13.6591C242.476 13.8864 243.268 14.2386 243.957 14.7159C244.654 15.1932 245.204 15.8068 245.605 16.5568C246.007 17.2992 246.207 18.1894 246.207 19.2273V31H241.616V28.5795H241.48C241.2 29.125 240.825 29.6061 240.355 30.0227C239.885 30.4318 239.321 30.7538 238.662 30.9886C238.003 31.2159 237.241 31.3295 236.378 31.3295ZM237.764 27.9886C238.476 27.9886 239.105 27.8485 239.651 27.5682C240.196 27.2803 240.624 26.8939 240.935 26.4091C241.245 25.9242 241.401 25.375 241.401 24.7614V22.9091C241.249 23.0076 241.041 23.0985 240.776 23.1818C240.518 23.2576 240.226 23.3295 239.901 23.3977C239.575 23.4583 239.249 23.5152 238.923 23.5682C238.598 23.6136 238.302 23.6553 238.037 23.6932C237.469 23.7765 236.973 23.9091 236.548 24.0909C236.124 24.2727 235.795 24.5189 235.56 24.8295C235.325 25.1326 235.207 25.5114 235.207 25.9659C235.207 26.625 235.446 27.1288 235.923 27.4773C236.408 27.8182 237.022 27.9886 237.764 27.9886ZM249.963 37.5455V13.5455H254.736V16.4773H254.952C255.164 16.0076 255.471 15.5303 255.872 15.0455C256.281 14.553 256.812 14.1439 257.463 13.8182C258.122 13.4848 258.94 13.3182 259.918 13.3182C261.19 13.3182 262.365 13.6515 263.44 14.3182C264.516 14.9773 265.376 15.9735 266.02 17.3068C266.664 18.6326 266.986 20.2955 266.986 22.2955C266.986 24.2424 266.671 25.8864 266.043 27.2273C265.421 28.5606 264.573 29.572 263.497 30.2614C262.429 30.9432 261.232 31.2841 259.906 31.2841C258.967 31.2841 258.168 31.1288 257.509 30.8182C256.857 30.5076 256.323 30.1174 255.906 29.6477C255.49 29.1705 255.171 28.6894 254.952 28.2045H254.804V37.5455H249.963ZM254.702 22.2727C254.702 23.3106 254.846 24.2159 255.134 24.9886C255.421 25.7614 255.838 26.3636 256.384 26.7955C256.929 27.2197 257.592 27.4318 258.372 27.4318C259.16 27.4318 259.827 27.2159 260.372 26.7841C260.918 26.3447 261.33 25.7386 261.611 24.9659C261.899 24.1856 262.043 23.2879 262.043 22.2727C262.043 21.2652 261.902 20.3788 261.622 19.6136C261.342 18.8485 260.929 18.25 260.384 17.8182C259.838 17.3864 259.168 17.1705 258.372 17.1705C257.584 17.1705 256.918 17.3788 256.372 17.7955C255.834 18.2121 255.421 18.803 255.134 19.5682C254.846 20.3333 254.702 21.2348 254.702 22.2727ZM270.213 37.5455V13.5455H274.986V16.4773H275.202C275.414 16.0076 275.721 15.5303 276.122 15.0455C276.531 14.553 277.062 14.1439 277.713 13.8182C278.372 13.4848 279.19 13.3182 280.168 13.3182C281.44 13.3182 282.615 13.6515 283.69 14.3182C284.766 14.9773 285.626 15.9735 286.27 17.3068C286.914 18.6326 287.236 20.2955 287.236 22.2955C287.236 24.2424 286.921 25.8864 286.293 27.2273C285.671 28.5606 284.823 29.572 283.747 30.2614C282.679 30.9432 281.482 31.2841 280.156 31.2841C279.217 31.2841 278.418 31.1288 277.759 30.8182C277.107 30.5076 276.573 30.1174 276.156 29.6477C275.74 29.1705 275.421 28.6894 275.202 28.2045H275.054V37.5455H270.213ZM274.952 22.2727C274.952 23.3106 275.096 24.2159 275.384 24.9886C275.671 25.7614 276.088 26.3636 276.634 26.7955C277.179 27.2197 277.842 27.4318 278.622 27.4318C279.41 27.4318 280.077 27.2159 280.622 26.7841C281.168 26.3447 281.58 25.7386 281.861 24.9659C282.149 24.1856 282.293 23.2879 282.293 22.2727C282.293 21.2652 282.152 20.3788 281.872 19.6136C281.592 18.8485 281.179 18.25 280.634 17.8182C280.088 17.3864 279.418 17.1705 278.622 17.1705C277.834 17.1705 277.168 17.3788 276.622 17.7955C276.084 18.2121 275.671 18.803 275.384 19.5682C275.096 20.3333 274.952 21.2348 274.952 22.2727Z" fill="black"/>
<defs>
<filter id="filter0_d_7_20" x="0" y="0" width="304" height="44" filterUnits="userSpaceOnUse" color-interpolation-filters="sRGB">
<feFlood flood-opacity="0" result="BackgroundImageFix"/>
<feColorMatrix in="SourceAlpha" type="matrix" values="0 0 0 0 0 0 0 0 0 0 0 0 0 0 0 0 0 0 127 0" result="hardAlpha"/>
<feOffset dx="4" dy="4"/>
<feComposite in2="hardAlpha" operator="out"/>
<feColorMatrix type="matrix" values="0 0 0 0 0 0 0 0 0 0 0 0 0 0 0 0 0 0 1 0"/>
<feBlend mode="normal" in2="BackgroundImageFix" result="effect1_dropShadow_7_20"/>
<feBlend mode="normal" in="SourceGraphic" in2="effect1_dropShadow_7_20" result="shape"/>
</filter>
</defs>
</svg>
